# xmcd CD database file generated by Grip 2.92
# 
# Track frame offsets:
#       150
#       15195
#       31065
#       46442
#       59025
#       71575
#       85942
#       100412
#       115597
#       130092
#       144892
#       159430
#       173745
#       187185
# 
# Disc length: 2673 seconds
# 
# Revision: 3
# Processed by: cddbd v1.4b41PL1 Copyright (c) Steve Scherf et al.
# Submitted via: Grip 2.92
# 
DISCID=b30a6f0e
DTITLE=Glenn Miller - Glenn Miller and his Orchestra
DYEAR=1900
DGENRE=
TTITLE0=Moonlight Serenade
TTITLE1=In The Mood
TTITLE2=Sunrise Serenade
TTITLE3=Little Brown Jug
TTITLE4=Runnin' Wild
TTITLE5=A String Of Pearls
TTITLE6=Pennsylvania 6-5000
TTITLE7=Chattanooga Choo Choo
TTITLE8=(I've Got A Cal In) Kalamazoo
TTITLE9=American Patrol
TTITLE10=Flying Home
TTITLE11=Don't Sit Under The Apple Tree
TTITLE12=The Lady's In Love With You
TTITLE13=My Last Goodbye
EXTD=
EXTT0=
EXTT1=
EXTT2=
EXTT3=
EXTT4=
EXTT5=
EXTT6=
EXTT7=
EXTT8=
EXTT9=
EXTT10=
EXTT11=
EXTT12=
EXTT13=
PLAYORDER=
